<svg width="180" height="93" viewBox="0 0 180 93" fill="none" xmlns="http://www.w3.org/2000/svg">
<path d="M29.5822 9.76965C34.2508 9.76965 38.0382 13.5571 38.0382 18.2257C38.0382 22.8943 34.2508 26.6817 29.5822 26.6817C24.9136 26.6817 21.1262 22.8943 21.1262 18.2257C21.1262 13.5571 24.9136 9.76965 29.5822 9.76965Z" fill="#63EBA8"/>
<path d="M48.7272 9.76965C53.3958 9.76965 57.1832 13.5571 57.1832 18.2257C57.1832 22.8943 53.3958 26.6817 48.7272 26.6817C44.0586 26.6817 40.2712 22.8943 40.2712 18.2257C40.2712 13.5571 44.0586 9.76965 48.7272 9.76965Z" fill="#63EBA8"/>
<path d="M67.8722 9.76965C72.5408 9.76965 76.3282 13.5571 76.3282 18.2257C76.3282 22.8943 72.5408 26.6817 67.8722 26.6817C63.2037 26.6817 59.4163 22.8943 59.4163 18.2257C59.4163 13.5571 63.2037 9.76965 67.8722 9.76965Z" fill="#63EBA8"/>
<path d="M29.5822 29.0625C34.2508 29.0625 38.0382 32.8499 38.0382 37.5185C38.0382 42.1871 34.2508 45.9746 29.5822 45.9746C24.9136 45.9746 21.1262 42.1871 21.1262 37.5185C21.1262 32.8499 24.9136 29.0625 29.5822 29.0625Z" fill="#63EBA8"/>
<path d="M48.7272 29.0625C53.3958 29.0625 57.1832 32.8499 57.1832 37.5185C57.1832 42.1871 53.3958 45.9746 48.7272 45.9746C44.0586 45.9746 40.2712 42.1871 40.2712 37.5185C40.2712 32.8499 44.0586 29.0625 48.7272 29.0625Z" fill="#63EBA8"/>
<path d="M29.5822 48.3281C34.2508 48.3281 38.0382 52.1156 38.0382 56.7842C38.0382 61.4528 34.2508 65.2402 29.5822 65.2402C24.9136 65.2402 21.1262 61.4528 21.1262 56.7842C21.1262 52.1156 24.9136 48.3281 29.5822 48.3281Z" fill="#63EBA8"/>
<path d="M112.812 20.4642C113.83 19.4462 115.067 18.9318 116.517 18.9318C117.968 18.9318 119.205 19.4408 120.223 20.4642C121.241 21.4877 121.75 22.7301 121.75 24.2024C121.75 25.6747 121.241 26.9062 120.223 27.9078C119.205 28.9093 117.968 29.4074 116.517 29.4074C115.067 29.4074 113.83 28.9093 112.812 27.9078C111.794 26.9062 111.28 25.6747 111.28 24.2024C111.28 22.7301 111.789 21.4877 112.812 20.4642Z" fill="#05051F"/>
<path d="M120.868 32.7734H111.986V65.2402H120.868V32.7734Z" fill="#05051F"/>
<path d="M127.332 32.7734H136.215V35.7726C137.315 34.6725 138.634 33.8023 140.167 33.1674C141.699 32.5325 143.401 32.2151 145.284 32.2151C147.654 32.2151 149.865 32.735 151.928 33.7804C153.992 34.8203 155.644 36.32 156.887 38.2848C158.135 40.2442 158.759 42.5101 158.759 45.0825V65.2347H149.876V47.3484C149.876 46.002 149.591 44.8088 149.017 43.7635C148.442 42.7236 147.67 41.919 146.69 41.3443C145.711 40.7751 144.627 40.485 143.445 40.485C142.016 40.485 140.752 40.8408 139.647 41.5578C138.546 42.2748 137.693 43.2326 137.102 44.4367C136.51 45.6408 136.215 46.9762 136.215 48.4485V65.2347H127.332V32.7679V32.7734Z" fill="#05051F"/>
<path d="M101.964 26.7693H105.522V18.9426H102.271C97.5638 18.9426 94.0118 20.0756 91.6146 22.3469C89.2173 24.6183 88.0187 27.8529 88.0187 32.0509V32.8171H82.7974V40.4741H88.0023L88.1829 65.2456H96.9454L96.8906 40.4741H105.527V32.8171H96.9946C96.9946 30.4855 97.5255 28.8491 98.5873 27.9186C99.3262 27.2673 100.465 26.8897 101.975 26.7747" fill="#05051F"/>
<path d="M87.8765 78.102C87.8765 75.0534 90.1204 72.9736 92.9774 72.9736C94.7288 72.9736 95.9493 73.822 96.7374 74.9385L95.6976 75.5187C95.1338 74.6867 94.1049 74.0792 92.9774 74.0792C90.8046 74.0792 89.1572 75.7431 89.1572 78.1075C89.1572 80.4719 90.8046 82.1357 92.9774 82.1357C94.1049 82.1357 95.1338 81.5391 95.6976 80.6963L96.7539 81.2764C95.922 82.4039 94.7343 83.2358 92.9774 83.2358C90.1259 83.2358 87.8765 81.156 87.8765 78.1075V78.102Z" fill="#05051F"/>
<path d="M98.3684 78.102C98.3684 75.1738 100.344 72.9736 103.289 72.9736C106.233 72.9736 108.209 75.1738 108.209 78.102C108.209 81.0301 106.217 83.2303 103.289 83.2303C100.361 83.2303 98.3684 81.0301 98.3684 78.102ZM106.928 78.102C106.928 75.7814 105.5 74.0737 103.289 74.0737C101.078 74.0737 99.6491 75.7814 99.6491 78.102C99.6491 80.4226 101.061 82.1302 103.289 82.1302C105.516 82.1302 106.928 80.4062 106.928 78.102Z" fill="#05051F"/>
<path d="M117.601 83.0552L111.821 75.1465V83.0552H110.59V73.1433H111.854L117.563 80.8878V73.1433H118.794V83.0552H117.606H117.601Z" fill="#05051F"/>
<path d="M128.575 83.0552L122.795 75.1465V83.0552H121.563V73.1433H122.828L128.536 80.8878V73.1433H129.768V83.0552H128.58H128.575Z" fill="#05051F"/>
<path d="M132.526 83.0552V73.1433H139.023V74.2434H133.763V77.4397H138.919V78.5399H133.763V81.9606H139.023V83.0607H132.526V83.0552Z" fill="#05051F"/>
<path d="M141.026 78.102C141.026 75.0534 143.27 72.9736 146.127 72.9736C147.878 72.9736 149.099 73.822 149.887 74.9385L148.847 75.5187C148.283 74.6867 147.254 74.0792 146.127 74.0792C143.954 74.0792 142.307 75.7431 142.307 78.1075C142.307 80.4719 143.954 82.1357 146.127 82.1357C147.254 82.1357 148.283 81.5391 148.847 80.6963L149.903 81.2764C149.071 82.4039 147.884 83.2358 146.127 83.2358C143.275 83.2358 141.026 81.156 141.026 78.1075V78.102Z" fill="#05051F"/>
<path d="M154.375 83.0552V74.2379H151.239V73.1378H158.759V74.2379H155.606V83.0552H154.375Z" fill="#05051F"/>
</svg>
