<?xml version="1.0" standalone="no"?>
<!DOCTYPE svg PUBLIC "-//W3C//DTD SVG 20010904//EN"
 "http://www.w3.org/TR/2001/REC-SVG-20010904/DTD/svg10.dtd">
<svg version="1.0" xmlns="http://www.w3.org/2000/svg"
 width="512.000000pt" height="512.000000pt" viewBox="0 0 512.000000 512.000000"
 preserveAspectRatio="xMidYMid meet">
<metadata>
Created by potrace 1.14, written by Peter Selinger 2001-2017
</metadata>
<g transform="translate(0.000000,512.000000) scale(0.100000,-0.100000)"
fill="#000000" stroke="none">
<path d="M1124 4670 c-11 -3 -34 -6 -51 -6 -18 1 -33 -2 -33 -5 0 -3 -6 -6
-12 -7 -50 -4 -186 -68 -235 -110 -102 -86 -136 -127 -186 -222 -39 -75 -51
-113 -64 -200 -16 -106 -5 -234 27 -315 16 -43 43 -99 49 -105 4 -3 13 -18 21
-35 13 -25 117 -135 163 -172 21 -16 151 -84 168 -87 8 -1 30 -7 49 -13 42
-13 39 -13 163 -17 54 -1 100 1 102 4 3 4 16 6 30 5 14 -2 25 1 25 6 0 6 5 7
10 4 6 -3 16 -3 23 2 6 4 17 8 22 9 6 1 35 13 65 26 92 42 197 129 257 213 22
32 78 130 74 130 -1 0 3 14 9 30 36 92 45 259 21 361 -6 27 -12 52 -11 56 0
15 -86 173 -110 202 -72 85 -135 136 -220 178 -36 18 -68 33 -72 34 -5 1 -10
3 -13 4 -3 1 -9 4 -15 5 -5 1 -11 3 -12 5 -18 14 -214 30 -244 20z"/>
<path d="M2617 4674 c-1 -1 -25 -4 -54 -8 -28 -3 -63 -10 -77 -16 -14 -5 -26
-8 -26 -5 0 15 -166 -76 -219 -120 -96 -80 -197 -238 -215 -337 -3 -13 -5 -23
-6 -23 -5 0 -12 -80 -12 -135 0 -83 10 -155 27 -197 8 -18 12 -33 9 -33 -2 0
10 -28 27 -62 49 -99 111 -172 202 -241 43 -33 145 -86 172 -91 6 -1 15 -4 20
-8 32 -19 302 -33 315 -17 3 4 22 10 43 13 44 7 177 65 177 78 0 4 7 8 16 8
22 0 177 159 193 198 7 17 17 32 22 32 5 0 8 3 7 8 -1 4 8 27 19 52 11 25 23
59 27 75 4 17 10 39 13 50 8 32 7 216 -1 260 -9 46 -53 167 -64 175 -4 3 -15
21 -25 40 -23 45 -98 126 -161 174 -58 44 -141 88 -150 79 -3 -4 -6 -1 -6 6 0
7 -4 9 -10 6 -5 -3 -10 -1 -10 6 0 7 -3 10 -6 7 -3 -4 -20 -2 -37 3 -49 15
-200 31 -210 23z"/>
<path d="M4076 4673 c-1 -2 -20 -5 -42 -7 -39 -5 -77 -13 -81 -16 -2 -2 -6 -3
-10 -4 -38 -9 -113 -40 -113 -47 0 -5 -3 -8 -7 -7 -32 11 -198 -142 -251 -230
-88 -144 -116 -345 -71 -512 12 -46 67 -171 78 -180 4 -3 18 -21 31 -40 26
-37 119 -130 131 -130 4 0 14 -6 21 -13 38 -38 174 -95 236 -99 6 -1 12 -4 12
-8 0 -7 222 -5 250 2 63 16 143 47 185 71 89 52 198 150 211 190 3 9 9 17 13
17 10 0 52 87 82 170 20 56 24 83 23 195 0 109 -4 140 -24 195 -27 77 -57 138
-76 158 -8 7 -14 17 -14 21 0 26 -183 188 -214 189 -5 0 -12 4 -15 9 -7 11
-105 50 -143 58 -16 3 -40 8 -55 11 -29 6 -152 12 -157 7z"/>
<path d="M1021 3169 c-80 -21 -195 -78 -239 -119 -18 -16 -37 -30 -43 -30 -5
0 -9 -4 -9 -8 0 -4 -15 -24 -32 -43 -18 -19 -42 -48 -54 -65 -24 -34 -74 -138
-79 -165 -2 -11 -6 -23 -9 -28 -27 -43 -23 -300 5 -353 5 -10 8 -18 5 -18 -9
0 46 -114 79 -164 34 -52 121 -146 133 -146 4 0 20 -11 35 -25 15 -14 27 -23
27 -19 0 4 8 1 18 -7 56 -47 171 -80 297 -86 93 -5 122 -2 190 16 74 21 203
81 239 113 57 48 118 114 135 146 6 11 17 26 24 34 16 15 67 139 67 161 0 7 3
17 7 20 24 25 18 313 -7 345 -2 1 -4 7 -5 12 -1 6 -4 12 -5 15 -1 3 -3 8 -4
13 -4 19 -42 90 -63 120 -13 17 -21 32 -18 32 3 0 -13 21 -37 46 -24 25 -44
50 -46 55 -2 5 -10 9 -18 9 -8 0 -14 4 -14 8 0 12 -87 67 -153 98 -120 54
-293 68 -426 33z"/>
<path d="M2555 3184 c-61 -14 -114 -29 -145 -43 -19 -8 -37 -15 -40 -16 -3 0
-24 -13 -47 -28 -24 -15 -45 -27 -48 -27 -14 0 -134 -130 -166 -180 -32 -48
-75 -146 -84 -190 -2 -8 -4 -15 -5 -15 -9 0 -14 -202 -6 -245 3 -14 7 -39 10
-57 6 -39 43 -128 68 -165 10 -14 18 -31 18 -37 0 -6 37 -48 83 -94 90 -90
174 -141 292 -176 58 -17 91 -20 190 -17 105 2 130 7 202 34 46 17 96 40 112
51 16 12 33 21 37 21 4 0 14 7 23 15 50 47 109 106 126 126 33 39 114 209 110
230 -2 10 0 19 4 19 10 0 13 24 14 148 1 98 -4 138 -24 189 -6 15 -10 29 -9
31 3 7 -42 96 -73 143 -34 54 -122 149 -136 149 -4 0 -17 9 -29 20 -33 31
-131 77 -209 98 -68 18 -218 27 -268 16z"/>
<path d="M1040 1694 c-205 -46 -393 -212 -466 -412 -37 -102 -38 -119 -34
-329 0 -12 5 -25 10 -28 5 -3 7 -12 4 -20 -3 -8 -2 -20 2 -27 5 -7 9 -17 11
-23 6 -29 31 -87 41 -97 7 -7 12 -16 12 -21 0 -21 139 -187 157 -187 2 0 12
-8 23 -18 23 -22 149 -85 193 -97 4 -2 8 -3 10 -4 1 -2 16 -4 32 -6 17 -2 39
-6 50 -9 51 -13 231 -5 258 11 4 2 20 7 35 9 37 7 152 63 152 75 0 5 4 8 9 6
24 -6 137 103 188 182 30 45 85 156 82 164 -1 1 4 22 11 47 13 49 17 201 6
267 -11 74 -64 198 -111 262 -24 33 -143 147 -170 164 -26 16 -86 45 -160 77
-60 27 -253 34 -345 14z"/>
</g>
</svg>
